<?xml version="1.0" encoding="utf-8"?>
<!-- Generator: Adobe Illustrator 16.0.0, SVG Export Plug-In . SVG Version: 6.00 Build 0)  -->
<!DOCTYPE svg PUBLIC "-//W3C//DTD SVG 1.1//EN" "http://www.w3.org/Graphics/SVG/1.1/DTD/svg11.dtd">
<svg version="1.1" id="圖層_1" xmlns="http://www.w3.org/2000/svg" xmlns:xlink="http://www.w3.org/1999/xlink" x="0px" y="0px"
	 width="736px" height="620px" viewBox="0 0 736 620" style="enable-background:new 0 0 736 620;" xml:space="preserve">
<g>
	<path id="XMLID_2_" style="fill:#EFDF27;" d="M430.9,6.3c-131.2,0-242.9,83.2-285.4,199.7c11.3-1.1,22.7-1.7,33.9-1.7
		c93.5,0,181.5,36.3,247.9,102.3l218.2,218.2c55-55,89.1-130.9,89.1-214.9C734.5,142.3,598.6,6.3,430.9,6.3z"/>
	<path id="XMLID_1_" style="fill:#A3C655;" d="M393.6,340.6C338.7,286,263,252.2,179.4,252.2c-16.1,0-31.9,1.3-47.3,3.7
		c-48.3,7.5-92.8,26.5-130.7,54l212,212l5.6,5.6c54.7,53.3,129.4,86.2,211.9,86.2c16.1,0,31.9-1.3,47.3-3.7
		c48.3-7.6,92.8-26.5,130.8-54L393.6,340.6z"/>
</g>
</svg>
