<?xml version="1.0" encoding="utf-8"?>
<!-- Generator: Adobe Illustrator 16.0.0, SVG Export Plug-In . SVG Version: 6.00 Build 0)  -->
<!DOCTYPE svg PUBLIC "-//W3C//DTD SVG 1.1//EN" "http://www.w3.org/Graphics/SVG/1.1/DTD/svg11.dtd">
<svg version="1.1" id="圖層_1" xmlns="http://www.w3.org/2000/svg" xmlns:xlink="http://www.w3.org/1999/xlink" x="0px" y="0px"
	 width="240px" height="64px" viewBox="0 0 240 64" style="enable-background:new 0 0 240 64;" xml:space="preserve">
<g>
	<path id="XMLID_223_" style="fill:#FFFFFF;" d="M37.5,5.8C26.2,5.8,16.6,13,13,23c1-0.1,1.9-0.1,2.9-0.1c8,0,15.6,3.1,21.3,8.8
		l18.7,18.7c4.7-4.7,7.6-11.2,7.6-18.4C63.5,17.5,51.9,5.8,37.5,5.8z"/>
	<path id="XMLID_225_" style="fill:#FFFFFF;" d="M34.3,34.5c-4.7-4.7-11.2-7.6-18.4-7.6c-1.4,0-2.7,0.1-4.1,0.3
		c-4.1,0.6-8,2.3-11.2,4.6l18.2,18.2l0.5,0.5c4.7,4.6,11.1,7.4,18.2,7.4c1.4,0,2.7-0.1,4.1-0.3c4.1-0.6,8-2.3,11.2-4.6L34.3,34.5z"
		/>
	<path id="XMLID_227_" style="fill:#FFFFFF;" d="M83.3,14c1,0.5,1.5,1.1,1.5,2.1c0,1.4-1.2,2.4-2.2,2.4c-0.8,0-1.1-0.3-1.8-1.2
		c-1.1-1.5-3.1-3-4.2-3.9c-0.2-0.1-0.4-0.4-0.4-0.7c0-0.6,0.5-0.9,0.9-0.9C77.3,11.8,80.7,12.8,83.3,14z M86.7,21.5
		c0,0.4-1.4,4.8-3.1,9.2c-2.6,6.3-3.2,6.7-4.4,6.7c-1.1,0-2.3-1-2.3-2.2c0-0.8,0.3-1.2,1.2-2.4c2.9-3.8,5-7.7,6.7-11.3
		c0.2-0.5,0.4-0.9,1-0.9S86.7,21,86.7,21.5z M84.1,3.3c1.6,1,2.4,1.6,2.4,2.7c0,1.1-0.9,2.3-2.2,2.3c-0.6,0-1.2-0.3-1.8-1.2
		c-1.2-1.7-2.1-2.8-4.1-4.7c-0.2-0.2-0.2-0.4-0.2-0.6c0-0.4,0.4-0.9,1-0.9C79.5,0.9,82.1,2.1,84.1,3.3z M111.3,3.7
		c0.4,0,1.1,0.1,1.1,0.9c0,0.9-0.7,0.9-1.1,0.9h-9v3.5h7.9c0.4,0,1.1,0.1,1.1,0.9c0,0.8-0.8,0.9-1.1,0.9h-7.9v3.6h10
		c0.4,0,1.1,0.1,1.1,0.9c0,0.8-0.8,0.9-1.1,0.9H87.7c-0.4,0-1.1-0.1-1.1-0.9c0-0.9,0.8-0.9,1.1-0.9h10.2v-3.6h-7.5
		c-0.4,0-1.1-0.1-1.1-0.9c0-0.9,0.7-0.9,1.1-0.9h7.5V5.6h-8.6c-0.4,0-1.1-0.1-1.1-0.9c0-0.9,0.8-0.9,1.1-0.9h8.6
		c0-1.2,0-3.1,2.2-3.1c2.2,0,2.2,1.9,2.2,3.1H111.3z M93.8,31.1v4.2c0,0.8,0,2.8-2.2,2.8c-2.2,0-2.2-2-2.2-2.8v-13
		c0-2.8,1.4-3.7,4-3.7h13.2c2.8,0,4,1.1,4,3.7v11.9c0,2.7-1.4,3.6-4,3.6H102c-0.4,0-1.1-0.1-1.1-0.9c0-0.9,0.8-0.9,1.1-0.9h2.6
		c1.5,0,1.7-0.5,1.7-1.7v-3.1H93.8z M106.3,23.9v-1.5c0-1.3-0.2-1.8-1.7-1.8h-9c-1.5,0-1.7,0.5-1.7,1.7v1.6H106.3z M106.3,29.3v-3.5
		H93.8v3.5H106.3z"/>
	<path id="XMLID_235_" style="fill:#FFFFFF;" d="M117.5,28.9c0-0.6,0.2-1.1,0.8-2c2.1-3.6,3.4-7.5,4.2-11.6c0.1-0.6,0.3-1,1-1
		c0.7,0,1,0.4,1,1.3c0,3.4-0.6,7.6-1.3,11c-0.9,4.3-1.8,4.8-3.2,4.8C119.1,31.4,117.5,30.5,117.5,28.9z M132.8,34
		c0,1.5,0.4,1.9,1.9,1.9h6.2c1.5,0,3-0.5,3.8-4c0.9-3.7,1.1-4.1,2.6-4.1c1.3,0,2.6,0.8,2.6,2c0,1.3-0.8,3.9-1.9,5.8
		c-1.1,1.9-3,2.2-5,2.2h-10.5c-3,0-4.3-1-4.3-3.8V13c0-0.7,0-2.8,2.2-2.8c2.3,0,2.3,2.1,2.3,2.8V34z M140.8,9.4
		c-0.8,0-1-0.2-2.2-1.2c-2-1.7-5.5-3.9-8.9-5.6c-0.4-0.2-0.8-0.4-0.8-0.9c0-0.6,0.5-0.9,0.9-0.9c0.3,0,3.9,0.6,7.9,2.2
		c5.2,2,5.4,2.9,5.4,3.9C143.2,8.1,142.1,9.4,140.8,9.4z M152.7,28.1c-1.5,0-2-0.9-2.4-2.5c-0.9-4-2.1-7.1-3.1-9.4
		c-0.3-0.7-0.9-1.9-0.9-2.2c0-0.3,0.4-0.9,1-0.9c1.6,0,8.3,9.8,8.3,12.1C155.5,27.3,153.8,28.1,152.7,28.1z"/>
	<path id="XMLID_240_" style="fill:#FFFFFF;" d="M171.6,8c2,0,2.3,1.3,2.3,1.9c0,0.9-1.3,3.5-3.8,7c0.6,1,1.8,3,3.9,5
		c0.2,0.2,0.3,0.4,0.3,0.6c0,0.5-0.4,0.9-0.9,0.9c-0.9,0-3.3-2.3-4.2-3.2v15.3c0,0.7-0.1,2.5-2.1,2.5s-2-1.9-2-2.5V22.5
		c-1.1,1-4.3,3.7-5.1,3.7c-0.5,0-0.9-0.4-0.9-0.9c0-0.1,0-0.4,0.3-0.6c3.5-3.4,4.1-4,6-6.7c2.1-3,3.7-6.5,3.7-7.5
		c0-0.4-0.3-0.6-0.8-0.6h-7.3c-0.4,0-1.1-0.1-1.1-0.9c0-0.8,0.7-0.9,1.1-0.9h4.4V3.1c0-0.5,0-2.4,2.1-2.4c2,0,2,1.9,2,2.4V8H171.6z
		 M196,1.9c0.4,0,1.1,0.1,1.1,0.9c0,0.9-0.8,0.9-1.1,0.9h-21.5c-0.4,0-1.1-0.1-1.1-0.9c0-0.8,0.8-0.9,1.1-0.9H196z M196.1,33.8
		c0,2.8-1.5,3.6-4,3.6h-13.8c-2.8,0-4-1.1-4-3.6v-9.6c0-2.8,1.5-3.6,4-3.6h13.8c2.8,0,4,1.1,4,3.6V33.8z M194.4,14
		c0,2.3-1.1,3.2-3.7,3.2h-11.3c-3,0-3.7-1.3-3.7-3.2v-3.5c0-2.3,1.1-3.2,3.7-3.2h11.3c2.8,0,3.7,1.1,3.7,3.2V14z M183.3,27.9v-5.5
		h-3c-1.5,0-1.7,0.4-1.7,1.7v3.7H183.3z M178.5,29.8v4c0,1.3,0.3,1.7,1.7,1.7h3v-5.8H178.5z M190.2,10.9c0-1.4-0.3-1.7-1.7-1.7h-6.8
		c-1.5,0-1.7,0.3-1.7,1.7v2.7c0,1.3,0.2,1.7,1.7,1.7h6.8c1.5,0,1.7-0.4,1.7-1.7V10.9z M191.9,27.9v-3.7c0-1.3-0.3-1.7-1.7-1.7h-3
		v5.5H191.9z M187.1,29.8v5.8h3c1.5,0,1.7-0.4,1.7-1.7v-4H187.1z"/>
	<path id="XMLID_250_" style="fill:#FFFFFF;" d="M219.6,5.5c-6.6,7.9-16.8,11.9-17.5,11.9c-0.4,0-0.9-0.4-0.9-0.9
		c0-0.6,0.4-0.8,0.9-1c5.9-2.9,11-7.4,14.5-13c1-1.6,1.8-1.9,3.8-1.9c2.5,0,2.9,0.6,4.1,2.5c1.6,2.5,5.7,8.1,14.2,12.5
		c0.4,0.2,0.8,0.4,0.8,0.9c0,0.6-0.4,1-0.9,1c-1.2,0-11-4.4-17.5-12c-0.2-0.3-0.4-0.4-0.7-0.4C220,5.1,219.8,5.2,219.6,5.5z
		 M222.5,24.5h9.7c0.4,0,1.1,0.1,1.1,0.9c0,0.9-0.8,0.9-1.1,0.9h-9.7v8.5h14.4c0.4,0,1.1,0.1,1.1,0.9c0,0.9-0.8,0.9-1.1,0.9h-33.2
		c-0.4,0-1.1-0.1-1.1-0.9s0.8-0.9,1.1-0.9H218v-8.5h-9.5c-0.4,0-1.1-0.1-1.1-0.9c0-0.8,0.7-0.9,1.1-0.9h9.5v-7.4h-9.5
		c-0.3,0-1.1-0.1-1.1-0.9s0.8-0.9,1.1-0.9h23.6c0.4,0,1.1,0.1,1.1,0.9c0,0.9-0.8,0.9-1.1,0.9h-9.6V24.5z"/>
	<path id="XMLID_254_" style="fill:#FFFFFF;" d="M86.1,53.3c0.9,0.2,1.6,0.5,2.1,0.8c0.6,0.3,1,0.7,1.3,1.2c0.3,0.4,0.6,0.9,0.7,1.4
		c0.1,0.5,0.2,1,0.2,1.5c0,0.8-0.1,1.5-0.4,2.1c-0.3,0.6-0.7,1.2-1.3,1.7c-0.6,0.5-1.3,0.8-2.2,1.1s-1.9,0.4-3,0.4
		c-1.2,0-2.3-0.1-3.1-0.4c-0.9-0.3-1.6-0.6-2.2-1c-0.6-0.4-1-0.9-1.3-1.4c-0.3-0.5-0.4-1-0.4-1.4c0-0.5,0.2-0.8,0.5-1.1
		c0.3-0.3,0.7-0.4,1.2-0.4c0.3,0,0.6,0.1,0.8,0.2c0.2,0.1,0.4,0.3,0.6,0.6c0.2,0.2,0.4,0.5,0.6,0.7c0.2,0.3,0.4,0.5,0.7,0.7
		c0.3,0.2,0.6,0.4,1.1,0.6c0.4,0.1,1,0.2,1.6,0.2c0.5,0,0.9-0.1,1.3-0.2c0.4-0.1,0.7-0.3,1-0.5c0.3-0.2,0.5-0.4,0.6-0.7
		c0.1-0.3,0.2-0.5,0.2-0.8c0-0.3-0.1-0.7-0.3-1c-0.2-0.3-0.7-0.6-1.3-0.7l-4.3-1.1c-0.9-0.2-1.6-0.5-2.1-0.8
		c-0.5-0.3-0.9-0.7-1.2-1.1c-0.3-0.4-0.5-0.8-0.6-1.3c-0.1-0.5-0.2-0.9-0.2-1.3c0-0.9,0.2-1.7,0.6-2.4c0.4-0.7,0.9-1.2,1.5-1.6
		c0.6-0.4,1.3-0.7,2.1-0.9c0.8-0.2,1.6-0.3,2.4-0.3c0.7,0,1.5,0.1,2.3,0.3c0.8,0.2,1.5,0.5,2.1,0.8c0.6,0.3,1.1,0.8,1.5,1.2
		c0.4,0.5,0.6,1,0.6,1.5c0,0.5-0.2,0.9-0.5,1.1c-0.3,0.3-0.8,0.4-1.2,0.4c-0.3,0-0.5-0.1-0.7-0.2c-0.2-0.1-0.4-0.3-0.6-0.5
		c-0.2-0.2-0.4-0.4-0.5-0.6c-0.2-0.2-0.4-0.4-0.7-0.6c-0.3-0.2-0.6-0.3-1-0.5c-0.4-0.1-0.9-0.2-1.5-0.2c-0.9,0-1.6,0.2-2,0.5
		c-0.5,0.4-0.7,0.8-0.7,1.4c0,0.3,0.1,0.5,0.2,0.7c0.2,0.2,0.4,0.4,0.6,0.5c0.3,0.1,0.5,0.3,0.8,0.3c0.3,0.1,0.6,0.2,0.9,0.2
		L86.1,53.3z"/>
	<path id="XMLID_256_" style="fill:#FFFFFF;" d="M94,53.1h-0.6c-0.5,0-0.8-0.1-1-0.3c-0.2-0.2-0.3-0.5-0.3-0.8
		c0-0.4,0.1-0.7,0.3-0.8c0.2-0.2,0.6-0.3,1-0.3H94v-2.1c0-0.6,0.2-1,0.5-1.3c0.3-0.3,0.7-0.4,1.2-0.4c0.5,0,0.9,0.1,1.2,0.4
		s0.5,0.7,0.5,1.3v2.1h1c0.5,0,0.9,0.1,1.1,0.3c0.3,0.2,0.4,0.5,0.4,0.9s-0.1,0.7-0.4,0.9c-0.3,0.2-0.6,0.3-1.1,0.3h-1v6.8
		c0,0.5,0.3,0.8,0.9,0.8h0.5c0.4,0,0.7,0.1,0.9,0.3s0.3,0.5,0.3,0.8c0,1-0.8,1.5-2.5,1.5c-1.2,0-2.1-0.3-2.7-0.8
		C94.3,62,94,61.3,94,60.3V53.1z"/>
	<path id="XMLID_258_" style="fill:#FFFFFF;" d="M113.2,59.7c0,0.4,0,0.7,0.1,0.9c0,0.2,0.1,0.4,0.1,0.6c0,0.2,0.1,0.3,0.1,0.4
		c0,0.1,0.1,0.2,0.1,0.4c0,0.4-0.2,0.7-0.5,0.9c-0.3,0.2-0.7,0.4-1.1,0.4c-0.7,0-1.2-0.2-1.5-0.6c-0.3-0.4-0.4-0.9-0.5-1.4
		c-0.7,0.7-1.4,1.3-2.1,1.5c-0.8,0.3-1.6,0.4-2.5,0.4c-0.5,0-1-0.1-1.4-0.2c-0.5-0.2-0.9-0.4-1.2-0.7c-0.4-0.3-0.7-0.7-0.9-1.1
		c-0.2-0.4-0.3-0.9-0.3-1.5c0-0.7,0.1-1.3,0.4-1.8c0.2-0.5,0.6-0.9,1-1.1c0.4-0.3,0.9-0.5,1.5-0.7c0.6-0.2,1.2-0.3,1.8-0.3l2.1-0.2
		c0.2,0,0.4,0,0.6-0.1s0.3-0.1,0.5-0.2c0.1-0.1,0.2-0.2,0.3-0.4c0.1-0.1,0.1-0.3,0.1-0.6c0-0.5-0.2-0.9-0.6-1.1
		c-0.4-0.2-0.9-0.3-1.5-0.3c-0.6,0-1.1,0.1-1.5,0.3c-0.4,0.2-0.7,0.4-0.9,0.6c-0.2,0.2-0.5,0.4-0.7,0.6c-0.2,0.2-0.5,0.3-0.8,0.3
		c-0.4,0-0.8-0.1-1-0.4c-0.3-0.3-0.4-0.6-0.4-0.9c0-0.3,0.1-0.7,0.3-1c0.2-0.4,0.6-0.7,1-1c0.5-0.3,1-0.5,1.7-0.7
		c0.7-0.2,1.4-0.3,2.3-0.3c0.8,0,1.5,0.1,2.2,0.2s1.3,0.3,1.7,0.6c0.5,0.3,0.9,0.7,1.1,1.1c0.3,0.4,0.4,1,0.4,1.6V59.7z M109.8,57.3
		c-0.2,0.2-0.4,0.3-0.7,0.4c-0.3,0.1-0.5,0.1-0.7,0.2l-1.2,0.2c-0.7,0.1-1.3,0.3-1.6,0.5c-0.4,0.2-0.6,0.6-0.6,1.1
		c0,0.4,0.2,0.7,0.5,1c0.3,0.3,0.8,0.4,1.4,0.4c0.5,0,0.9-0.1,1.3-0.2c0.4-0.1,0.7-0.3,0.9-0.6c0.3-0.2,0.5-0.5,0.6-0.8
		c0.1-0.3,0.2-0.6,0.2-0.9V57.3z"/>
	<path id="XMLID_261_" style="fill:#FFFFFF;" d="M116.6,52.1c0-0.5,0.1-0.9,0.4-1.2c0.3-0.3,0.7-0.4,1.1-0.4c0.4,0,0.8,0.1,1.1,0.4
		c0.3,0.3,0.4,0.7,0.4,1.2v1.3h0c0.1-0.4,0.2-0.7,0.4-1c0.2-0.3,0.3-0.6,0.6-0.9c0.2-0.3,0.5-0.5,0.8-0.7s0.7-0.3,1.1-0.3
		c0.5,0,1,0.2,1.3,0.5s0.5,0.7,0.5,1.2c0,0.3,0,0.6-0.1,0.8c-0.1,0.2-0.2,0.4-0.4,0.5c-0.2,0.1-0.3,0.2-0.5,0.3
		c-0.2,0.1-0.4,0.1-0.6,0.1h-0.6c-0.7,0-1.2,0.3-1.6,0.8c-0.4,0.6-0.5,1.5-0.5,2.9v3.9c0,0.4-0.1,0.8-0.3,1.2
		c-0.2,0.3-0.7,0.5-1.3,0.5c-0.7,0-1.1-0.2-1.3-0.5c-0.2-0.3-0.3-0.7-0.3-1.2V52.1z"/>
	<path id="XMLID_263_" style="fill:#FFFFFF;" d="M126.9,53.1h-0.6c-0.5,0-0.8-0.1-1-0.3c-0.2-0.2-0.3-0.5-0.3-0.8
		c0-0.4,0.1-0.7,0.3-0.8s0.6-0.3,1-0.3h0.6v-2.1c0-0.6,0.2-1,0.5-1.3c0.3-0.3,0.7-0.4,1.2-0.4s0.9,0.1,1.2,0.4
		c0.3,0.3,0.5,0.7,0.5,1.3v2.1h1c0.5,0,0.9,0.1,1.1,0.3c0.3,0.2,0.4,0.5,0.4,0.9s-0.1,0.7-0.4,0.9s-0.6,0.3-1.1,0.3h-1v6.8
		c0,0.5,0.3,0.8,0.9,0.8h0.5c0.4,0,0.7,0.1,0.9,0.3s0.3,0.5,0.3,0.8c0,1-0.8,1.5-2.5,1.5c-1.2,0-2.1-0.3-2.7-0.8
		c-0.5-0.5-0.8-1.3-0.8-2.3V53.1z"/>
	<path id="XMLID_265_" style="fill:#FFFFFF;" d="M143.3,53.1h-0.8c-0.5,0-0.8-0.1-1-0.3c-0.2-0.2-0.3-0.5-0.3-0.8
		c0-0.4,0.1-0.7,0.3-0.8c0.2-0.2,0.6-0.3,1-0.3h0.8v-1.7c0-0.5,0.1-1,0.3-1.4s0.5-0.8,0.8-1c0.3-0.3,0.7-0.5,1.2-0.6
		c0.4-0.1,0.9-0.2,1.4-0.2c0.6,0,1.1,0.1,1.6,0.4c0.4,0.3,0.7,0.7,0.7,1.2c0,0.3-0.1,0.6-0.3,0.8c-0.2,0.2-0.5,0.3-0.8,0.3
		c-0.1,0-0.2,0-0.4,0c-0.1,0-0.2,0-0.4,0c-0.2,0-0.4,0.1-0.6,0.2c-0.1,0.1-0.2,0.3-0.2,0.6v1.5h1c0.5,0,0.9,0.1,1.1,0.3
		c0.3,0.2,0.4,0.5,0.4,0.9s-0.1,0.7-0.4,0.9s-0.6,0.3-1.1,0.3h-1v8.5c0,0.6-0.2,1-0.5,1.3c-0.3,0.3-0.7,0.4-1.2,0.4
		c-0.5,0-0.9-0.1-1.2-0.4c-0.3-0.3-0.5-0.7-0.5-1.3V53.1z"/>
	<path id="XMLID_267_" style="fill:#FFFFFF;" d="M151.3,52.1c0-0.5,0.1-0.9,0.4-1.2c0.3-0.3,0.7-0.4,1.1-0.4c0.4,0,0.8,0.1,1.1,0.4
		c0.3,0.3,0.4,0.7,0.4,1.2v1.3h0c0.1-0.4,0.2-0.7,0.4-1s0.3-0.6,0.6-0.9c0.2-0.3,0.5-0.5,0.8-0.7c0.3-0.2,0.7-0.3,1.1-0.3
		c0.5,0,1,0.2,1.3,0.5c0.3,0.3,0.5,0.7,0.5,1.2c0,0.3,0,0.6-0.1,0.8c-0.1,0.2-0.2,0.4-0.4,0.5c-0.2,0.1-0.3,0.2-0.5,0.3
		c-0.2,0.1-0.4,0.1-0.6,0.1h-0.6c-0.7,0-1.2,0.3-1.6,0.8c-0.4,0.6-0.5,1.5-0.5,2.9v3.9c0,0.4-0.1,0.8-0.3,1.2
		c-0.2,0.3-0.7,0.5-1.3,0.5c-0.7,0-1.1-0.2-1.3-0.5c-0.2-0.3-0.3-0.7-0.3-1.2V52.1z"/>
	<path id="XMLID_269_" style="fill:#FFFFFF;" d="M160,56.9c0-0.9,0.1-1.7,0.4-2.5c0.3-0.8,0.7-1.4,1.2-2c0.5-0.6,1.2-1,2-1.3
		s1.7-0.5,2.7-0.5c1,0,1.9,0.2,2.7,0.5c0.8,0.3,1.4,0.8,2,1.3c0.5,0.6,0.9,1.2,1.2,2c0.3,0.8,0.4,1.6,0.4,2.5c0,0.9-0.1,1.7-0.3,2.4
		s-0.6,1.4-1.1,2c-0.5,0.6-1.1,1.1-1.9,1.4c-0.8,0.3-1.8,0.5-2.9,0.5c-1.2,0-2.1-0.2-2.9-0.5c-0.8-0.3-1.4-0.8-1.9-1.4
		c-0.5-0.6-0.9-1.3-1.1-2C160.1,58.6,160,57.8,160,56.9z M163.4,56.9c0,0.5,0.1,1,0.2,1.5c0.1,0.5,0.3,0.9,0.5,1.2
		c0.2,0.4,0.5,0.6,0.9,0.8c0.4,0.2,0.8,0.3,1.3,0.3c0.5,0,0.9-0.1,1.3-0.3c0.4-0.2,0.7-0.5,0.9-0.8c0.2-0.4,0.4-0.8,0.5-1.2
		c0.1-0.5,0.2-1,0.2-1.5c0-0.6-0.1-1.1-0.2-1.5s-0.3-0.9-0.5-1.2c-0.2-0.3-0.5-0.6-0.9-0.8s-0.8-0.3-1.3-0.3c-0.5,0-0.9,0.1-1.3,0.3
		c-0.4,0.2-0.7,0.5-0.9,0.8c-0.2,0.3-0.4,0.8-0.5,1.2C163.4,55.8,163.4,56.4,163.4,56.9z"/>
	<path id="XMLID_272_" style="fill:#FFFFFF;" d="M174.9,52.2c0-0.5,0.1-0.9,0.4-1.2c0.3-0.3,0.7-0.5,1.2-0.5c0.5,0,0.9,0.2,1.2,0.5
		s0.4,0.7,0.4,1.2v0.4h0c0.4-0.7,1-1.2,1.7-1.6c0.7-0.4,1.5-0.6,2.4-0.6c0.3,0,0.6,0,0.9,0.1c0.3,0.1,0.6,0.2,0.9,0.4
		c0.3,0.2,0.6,0.4,0.8,0.7s0.4,0.6,0.6,1c0.5-0.7,1-1.2,1.7-1.6c0.6-0.4,1.4-0.6,2.3-0.6c0.6,0,1.1,0.1,1.7,0.2
		c0.5,0.1,1,0.4,1.3,0.7c0.4,0.3,0.7,0.8,0.9,1.3c0.2,0.5,0.3,1.2,0.3,1.9v6.9c0,0.4-0.1,0.8-0.3,1.2c-0.2,0.3-0.7,0.5-1.3,0.5
		c-0.7,0-1.1-0.2-1.3-0.5c-0.2-0.3-0.3-0.7-0.3-1.2v-6.1c0-0.6-0.1-1.1-0.4-1.5s-0.8-0.6-1.4-0.6c-0.3,0-0.6,0.1-0.9,0.2
		c-0.3,0.1-0.6,0.3-0.8,0.5c-0.2,0.2-0.4,0.5-0.5,0.8c-0.1,0.3-0.2,0.7-0.2,1.1v5.6c0,0.4-0.1,0.8-0.3,1.2c-0.2,0.3-0.7,0.5-1.3,0.5
		s-1.1-0.2-1.3-0.5s-0.3-0.7-0.3-1.2v-6.1c0-0.6-0.1-1.1-0.4-1.5s-0.8-0.6-1.4-0.6c-0.3,0-0.6,0.1-0.9,0.2c-0.3,0.1-0.6,0.3-0.8,0.5
		c-0.2,0.2-0.4,0.5-0.5,0.8c-0.1,0.3-0.2,0.7-0.2,1.1v5.6c0,0.4-0.1,0.8-0.3,1.2c-0.2,0.3-0.7,0.5-1.3,0.5c-0.7,0-1.1-0.2-1.3-0.5
		c-0.2-0.3-0.3-0.7-0.3-1.2V52.2z"/>
	<path id="XMLID_274_" style="fill:#FFFFFF;" d="M204.9,53.1h-0.6c-0.5,0-0.8-0.1-1-0.3c-0.2-0.2-0.3-0.5-0.3-0.8
		c0-0.4,0.1-0.7,0.3-0.8c0.2-0.2,0.6-0.3,1-0.3h0.6v-2.1c0-0.6,0.2-1,0.5-1.3c0.3-0.3,0.7-0.4,1.2-0.4c0.5,0,0.9,0.1,1.2,0.4
		c0.3,0.3,0.5,0.7,0.5,1.3v2.1h1c0.5,0,0.9,0.1,1.1,0.3c0.3,0.2,0.4,0.5,0.4,0.9s-0.1,0.7-0.4,0.9c-0.3,0.2-0.6,0.3-1.1,0.3h-1v6.8
		c0,0.5,0.3,0.8,0.9,0.8h0.5c0.4,0,0.7,0.1,0.9,0.3c0.2,0.2,0.3,0.5,0.3,0.8c0,1-0.8,1.5-2.5,1.5c-1.2,0-2.1-0.3-2.7-0.8
		c-0.5-0.5-0.8-1.3-0.8-2.3V53.1z"/>
	<path id="XMLID_276_" style="fill:#FFFFFF;" d="M215.8,57.6c0,0.9,0.3,1.6,0.8,2.2s1.3,0.9,2.3,0.9c0.6,0,1.1-0.1,1.5-0.3
		c0.4-0.2,0.7-0.4,0.9-0.6c0.2-0.2,0.5-0.4,0.7-0.6c0.2-0.2,0.5-0.3,0.8-0.3c0.4,0,0.7,0.1,1,0.4c0.3,0.3,0.4,0.6,0.4,0.9
		c0,0.5-0.2,1-0.5,1.3s-0.8,0.7-1.3,0.9c-0.5,0.2-1.1,0.4-1.7,0.5c-0.6,0.1-1.2,0.2-1.7,0.2c-1.2,0-2.2-0.2-3-0.5
		c-0.8-0.4-1.5-0.8-2-1.4c-0.5-0.6-0.9-1.2-1.1-2c-0.2-0.7-0.3-1.5-0.3-2.2c0-1,0.1-1.9,0.4-2.7c0.3-0.8,0.7-1.5,1.3-2.1
		c0.5-0.6,1.2-1,2-1.3c0.8-0.3,1.7-0.5,2.7-0.5c1,0,1.8,0.2,2.6,0.5c0.8,0.3,1.4,0.7,1.9,1.3c0.5,0.5,0.9,1.1,1.2,1.8
		c0.3,0.7,0.4,1.3,0.4,2c0,0.6-0.1,1-0.3,1.2c-0.2,0.2-0.6,0.3-1.2,0.3H215.8z M221.7,55.6c-0.1-0.8-0.4-1.4-0.9-1.9
		c-0.5-0.5-1.2-0.8-1.9-0.8c-0.9,0-1.5,0.2-2,0.7c-0.5,0.5-0.9,1.1-1,2H221.7z"/>
	<path id="XMLID_279_" style="fill:#FFFFFF;" d="M238.6,59.7c0,0.4,0,0.7,0.1,0.9c0,0.2,0.1,0.4,0.1,0.6c0,0.2,0.1,0.3,0.1,0.4
		c0,0.1,0.1,0.2,0.1,0.4c0,0.4-0.2,0.7-0.5,0.9c-0.3,0.2-0.7,0.4-1.1,0.4c-0.7,0-1.2-0.2-1.5-0.6c-0.3-0.4-0.4-0.9-0.5-1.4
		c-0.7,0.7-1.4,1.3-2.2,1.5c-0.8,0.3-1.6,0.4-2.5,0.4c-0.5,0-0.9-0.1-1.4-0.2c-0.5-0.2-0.9-0.4-1.2-0.7s-0.7-0.7-0.9-1.1
		c-0.2-0.4-0.3-0.9-0.3-1.5c0-0.7,0.1-1.3,0.4-1.8c0.2-0.5,0.6-0.9,1-1.1c0.4-0.3,0.9-0.5,1.5-0.7c0.6-0.2,1.2-0.3,1.8-0.3l2.1-0.2
		c0.2,0,0.4,0,0.6-0.1s0.3-0.1,0.5-0.2c0.1-0.1,0.2-0.2,0.3-0.4c0.1-0.1,0.1-0.3,0.1-0.6c0-0.5-0.2-0.9-0.6-1.1
		c-0.4-0.2-0.9-0.3-1.5-0.3c-0.6,0-1.1,0.1-1.5,0.3s-0.7,0.4-0.9,0.6c-0.2,0.2-0.5,0.4-0.7,0.6c-0.2,0.2-0.5,0.3-0.8,0.3
		c-0.4,0-0.8-0.1-1-0.4c-0.3-0.3-0.4-0.6-0.4-0.9c0-0.3,0.1-0.7,0.3-1c0.2-0.4,0.6-0.7,1-1c0.5-0.3,1-0.5,1.7-0.7
		c0.7-0.2,1.4-0.3,2.3-0.3c0.8,0,1.5,0.1,2.2,0.2s1.3,0.3,1.7,0.6c0.5,0.3,0.9,0.7,1.1,1.1c0.3,0.4,0.4,1,0.4,1.6V59.7z M235.2,57.3
		c-0.2,0.2-0.4,0.3-0.7,0.4c-0.3,0.1-0.5,0.1-0.7,0.2l-1.2,0.2c-0.7,0.1-1.3,0.3-1.6,0.5c-0.4,0.2-0.6,0.6-0.6,1.1
		c0,0.4,0.2,0.7,0.5,1c0.3,0.3,0.8,0.4,1.4,0.4c0.5,0,0.9-0.1,1.3-0.2c0.4-0.1,0.7-0.3,0.9-0.6c0.3-0.2,0.5-0.5,0.6-0.8
		c0.1-0.3,0.2-0.6,0.2-0.9V57.3z"/>
</g>
</svg>
