<?xml version="1.0" encoding="utf-8"?>
<!-- Generator: Adobe Illustrator 16.0.0, SVG Export Plug-In . SVG Version: 6.00 Build 0)  -->
<!DOCTYPE svg PUBLIC "-//W3C//DTD SVG 1.1//EN" "http://www.w3.org/Graphics/SVG/1.1/DTD/svg11.dtd">
<svg version="1.1" id="圖層_1" xmlns="http://www.w3.org/2000/svg" xmlns:xlink="http://www.w3.org/1999/xlink" x="0px" y="0px"
	 width="5.6px" height="4px" viewBox="0 0 5.6 4" style="enable-background:new 0 0 5.6 4;" xml:space="preserve">
<polygon style="fill:#40A1FF;" points="9.8,3.5 9.8,3.4 9.8,3.4 "/>
<path style="fill:#FFFFFF;" d="M4.8,1.9L4.8,1.9L4,1.3h0h0c-0.1,0-0.1,0-0.1,0.1v0v0.3H1.1C1,1.7,1,1.7,1,1.8v0.5
	c0,0.1,0,0.1,0.1,0.1h2.8v0.2v0c0,0.1,0,0.1,0.1,0.1h0h0H4l0.7-0.6l0,0C4.8,2.1,4.8,2,4.8,1.9C4.8,2,4.8,2,4.8,1.9z"/>
</svg>
